<?xml version="1.0" encoding="UTF-8" standalone="no"?>
<!-- Created with Inkscape (http://www.inkscape.org/) -->

<svg
   width="61.11565mm"
   height="27.741993mm"
   viewBox="0 0 61.11565 27.741993"
   version="1.1"
   id="svg1"
   xmlns="http://www.w3.org/2000/svg"
   xmlns:svg="http://www.w3.org/2000/svg">
   <defs
      id="defs1" />
   <g
      id="layer1"
      transform="translate(-10,-10.000001)">
      <path
         id="path2"
         style="display:inline;fill:#069AF1;fill-opacity:1;stroke-width:0;stroke-dasharray:none"
         d="m 10,10.00001 10.100159,16.12718 -0.04237,11.58121 6.442503,0.03359 -0.06925,-11.6148 7.266739,-11.54813 -0.02119,23.06991 17.79272,0.01602 v -0.0088 l 16.41708,-0.0093 3.22926,-4.80074 v -6.71897 l -3.22926,-4.81779 h -9.48624 L 57.400211,20.018 v -3.93982 l 0.99994,-1.29087 h 12.7155 V 10 h -16.86667 l -3.25355,4.78731 0.0098,6.52208 3.24373,4.81779 h 9.40615 l 0.99993,1.29088 v 4.13722 l -0.99993,1.29087 -12.55686,0.05116 v 0.0016 l -11.23136,-0.05787 -0.0279,-6.71381 h 13.41003 l -3.24373,-4.81779 h -10.16268 l -10e-4,-6.53759 10.15339,0.01551 3.25406,-4.78731 h -16.66978 -2.87734 -3.18379 l -7.141166,11.30939 -7.16287,-11.30939 z" />
   </g>
</svg>