<svg width="1596" height="520" viewBox="0 0 1596 520" fill="none" xmlns="http://www.w3.org/2000/svg">
<path d="M162.51 499.291C216.829 566.212 343.883 445.169 321.357 390.628C301.701 343.038 210.351 322.937 205.87 263.608C201.228 202.15 334.485 75.1494 314.017 18.1366C285.997 -59.9134 49.3119 158.134 1 85.7833M196.853 499.291C251.172 566.212 378.226 445.169 355.7 390.628C336.045 343.038 244.694 322.937 240.213 263.608C235.571 202.15 368.828 75.1494 348.36 18.1366C320.34 -59.9134 83.6549 158.134 35.3431 85.7833M231.196 499.291C285.515 566.212 412.569 445.169 390.043 390.628C370.388 343.038 279.037 322.937 274.556 263.608C269.914 202.15 403.171 75.1494 382.703 18.1366C354.683 -59.9134 117.998 158.134 69.6862 85.7833M265.539 499.291C319.858 566.212 446.912 445.169 424.386 390.628C404.731 343.038 313.381 322.937 308.899 263.608C304.257 202.15 437.514 75.1494 417.046 18.1366C389.026 -59.9134 152.341 158.134 104.029 85.7833M299.882 499.291C354.201 566.212 481.255 445.169 458.73 390.628C439.074 343.038 347.724 322.937 343.242 263.608C338.6 202.15 471.857 75.1494 451.389 18.1366C423.369 -59.9134 186.684 158.134 138.372 85.7834M334.225 499.291C388.544 566.212 515.599 445.169 493.073 390.628C473.417 343.038 382.067 322.937 377.585 263.608C372.943 202.15 506.2 75.1494 485.732 18.1366C457.712 -59.9134 221.027 158.134 172.715 85.7834M368.568 499.291C422.887 566.212 549.942 445.169 527.416 390.628C507.76 343.038 416.41 322.937 411.928 263.608C407.286 202.15 540.543 75.1494 520.075 18.1366C492.055 -59.9134 255.37 158.134 207.058 85.7834M402.912 499.291C457.231 566.212 584.285 445.169 561.759 390.628C542.103 343.038 450.753 322.937 446.271 263.608C441.629 202.15 574.886 75.1494 554.418 18.1366C526.398 -59.9134 289.713 158.134 241.402 85.7834M437.255 499.291C491.574 566.212 618.628 445.169 596.102 390.628C576.446 343.038 485.096 322.937 480.615 263.608C475.972 202.15 609.229 75.1494 588.761 18.1366C560.741 -59.9134 324.057 158.134 275.745 85.7834M471.598 499.291C525.917 566.212 652.971 445.169 630.445 390.628C610.789 343.038 519.439 322.937 514.958 263.608C510.315 202.15 643.572 75.1494 623.105 18.1366C595.084 -59.9134 358.4 158.134 310.088 85.7834M505.941 499.291C560.26 566.212 687.314 445.169 664.788 390.628C645.132 343.038 553.782 322.937 549.301 263.608C544.658 202.15 677.915 75.1494 657.448 18.1365C629.427 -59.9134 392.743 158.134 344.431 85.7834M540.284 499.291C594.603 566.212 721.657 445.169 699.131 390.628C679.475 343.038 588.125 322.937 583.644 263.608C579.002 202.15 712.258 75.1494 691.791 18.1365C663.771 -59.9134 427.086 158.134 378.774 85.7834M574.627 499.291C628.946 566.212 756 445.169 733.474 390.628C713.818 343.038 622.468 322.937 617.987 263.608C613.345 202.15 746.602 75.1494 726.134 18.1365C698.114 -59.9134 461.429 158.134 413.117 85.7834M608.97 499.291C663.289 566.212 790.343 445.169 767.817 390.628C748.162 343.038 656.811 322.937 652.33 263.608C647.688 202.15 780.945 75.1494 760.477 18.1365C732.457 -59.9134 495.772 158.134 447.46 85.7834M643.313 499.291C697.632 566.212 824.686 445.169 802.16 390.628C782.505 343.038 691.155 322.937 686.673 263.608C682.031 202.15 815.288 75.1494 794.82 18.1365C766.8 -59.9134 530.115 158.134 481.803 85.7834M677.656 499.291C731.975 566.212 859.029 445.169 836.503 390.628C816.848 343.038 725.498 322.937 721.016 263.608C716.374 202.15 849.631 75.1494 829.163 18.1365C801.143 -59.9134 564.458 158.134 516.146 85.7834M711.999 499.291C766.318 566.212 893.373 445.169 870.847 390.628C851.191 343.038 759.841 322.937 755.359 263.608C750.717 202.15 883.974 75.1494 863.506 18.1365C835.486 -59.9134 598.801 158.134 550.489 85.7834M746.342 499.291C800.661 566.212 927.716 445.169 905.19 390.628C885.534 343.038 794.184 322.937 789.702 263.608C785.06 202.15 918.317 75.1494 897.849 18.1365C869.829 -59.9134 633.144 158.134 584.832 85.7834M780.685 499.291C835.005 566.212 962.059 445.169 939.533 390.628C919.877 343.038 828.527 322.937 824.045 263.608C819.403 202.15 952.66 75.1494 932.192 18.1365C904.172 -59.9134 667.487 158.134 619.175 85.7834M815.029 499.291C869.348 566.212 996.402 445.169 973.876 390.628C954.22 343.038 862.87 322.937 858.389 263.608C853.746 202.15 987.003 75.1494 966.535 18.1365C938.515 -59.9134 701.83 158.134 653.519 85.7834M849.372 499.291C903.691 566.212 1030.74 445.169 1008.22 390.628C988.563 343.038 897.213 322.937 892.732 263.608C888.089 202.15 1021.35 75.1494 1000.88 18.1365C972.858 -59.9134 736.174 158.134 687.862 85.7834M883.715 499.291C938.034 566.212 1065.09 445.169 1042.56 390.628C1022.91 343.038 931.556 322.937 927.075 263.608C922.432 202.15 1055.69 75.1494 1035.22 18.1365C1007.2 -59.9134 770.517 158.134 722.205 85.7834M918.058 499.291C972.377 566.212 1099.43 445.169 1076.91 390.628C1057.25 343.038 965.899 322.937 961.418 263.608C956.776 202.15 1090.03 75.1494 1069.56 18.1365C1041.54 -59.9134 804.86 158.134 756.548 85.7834M952.401 499.291C1006.72 566.212 1133.77 445.169 1111.25 390.628C1091.59 343.038 1000.24 322.937 995.761 263.608C991.119 202.15 1124.38 75.1494 1103.91 18.1365C1075.89 -59.9134 839.203 158.134 790.891 85.7834M986.744 499.291C1041.06 566.212 1168.12 445.169 1145.59 390.628C1125.94 343.038 1034.59 322.937 1030.1 263.608C1025.46 202.15 1158.72 75.1494 1138.25 18.1365C1110.23 -59.9134 873.546 158.134 825.234 85.7834M1021.09 499.291C1075.41 566.212 1202.46 445.169 1179.93 390.628C1160.28 343.038 1068.93 322.937 1064.45 263.608C1059.8 202.15 1193.06 75.1494 1172.59 18.1365C1144.57 -59.9134 907.889 158.134 859.577 85.7834M1055.43 499.291C1109.75 566.212 1236.8 445.169 1214.28 390.628C1194.62 343.038 1103.27 322.937 1098.79 263.608C1094.15 202.15 1227.4 75.1494 1206.94 18.1365C1178.92 -59.9134 942.232 158.134 893.92 85.7834M1089.77 499.291C1144.09 566.212 1271.15 445.169 1248.62 390.628C1228.96 343.038 1137.61 322.937 1133.13 263.608C1128.49 202.15 1261.75 75.1494 1241.28 18.1365C1213.26 -59.9134 976.575 158.134 928.263 85.7834M1124.12 499.291C1178.44 566.212 1305.49 445.169 1282.96 390.628C1263.31 343.038 1171.96 322.937 1167.48 263.608C1162.83 202.15 1296.09 75.1494 1275.62 18.1365C1247.6 -59.9134 1010.92 158.134 962.606 85.7834M1158.46 499.291C1212.78 566.212 1339.83 445.169 1317.31 390.628C1297.65 343.038 1206.3 322.937 1201.82 263.608C1197.18 202.15 1330.43 75.1494 1309.97 18.1365C1281.95 -59.9134 1045.26 158.134 996.949 85.7834M1192.8 499.291C1247.12 566.212 1374.18 445.169 1351.65 390.628C1331.99 343.038 1240.64 322.937 1236.16 263.608C1231.52 202.15 1364.78 75.1494 1344.31 18.1365C1316.29 -59.9134 1079.6 158.134 1031.29 85.7834M1227.15 499.291C1281.46 566.212 1408.52 445.169 1385.99 390.628C1366.34 343.038 1274.99 322.937 1270.51 263.608C1265.86 202.15 1399.12 75.1494 1378.65 18.1365C1350.63 -59.9134 1113.95 158.134 1065.64 85.7834M1261.49 499.291C1315.81 566.212 1442.86 445.169 1420.34 390.628C1400.68 343.038 1309.33 322.937 1304.85 263.608C1300.21 202.15 1433.46 75.1494 1413 18.1365C1384.98 -59.9134 1148.29 158.134 1099.98 85.7834M1295.83 499.291C1350.15 566.212 1477.21 445.169 1454.68 390.628C1435.02 343.038 1343.67 322.937 1339.19 263.608C1334.55 202.15 1467.81 75.1494 1447.34 18.1365C1419.32 -59.9134 1182.63 158.134 1134.32 85.7834M1330.17 499.291C1384.49 566.212 1511.55 445.169 1489.02 390.628C1469.37 343.038 1378.02 322.937 1373.53 263.608C1368.89 202.15 1502.15 75.1494 1481.68 18.1365C1453.66 -59.9134 1216.98 158.134 1168.66 85.7834M1364.52 499.291C1418.84 566.212 1545.89 445.169 1523.37 390.628C1503.71 343.038 1412.36 322.937 1407.88 263.608C1403.24 202.15 1536.49 75.1494 1516.02 18.1365C1488 -59.9134 1251.32 158.134 1203.01 85.7834M1398.86 499.291C1453.18 566.212 1580.23 445.169 1557.71 390.628C1538.05 343.038 1446.7 322.937 1442.22 263.608C1437.58 202.15 1570.84 75.1494 1550.37 18.1365C1522.35 -59.9134 1285.66 158.134 1237.35 85.7834M1433.2 499.291C1487.52 566.212 1614.58 445.169 1592.05 390.628C1572.4 343.038 1481.05 322.937 1476.56 263.608C1471.92 202.15 1605.18 75.1494 1584.71 18.1365C1556.69 -59.9134 1320.01 158.134 1271.69 85.7834" stroke="#069AF1" stroke-width="2"/>
</svg>
